SplineFontDB: 3.2
FontName: Untitled1
FullName: Untitled1
FamilyName: Untitled1
Weight: Regular
Copyright: Copyright (c) 2021, gsrid
UComments: "2021-1-18: Created with FontForge (http://fontforge.org)"
Version: 001.000
ItalicAngle: 0
UnderlinePosition: -100
UnderlineWidth: 50
Ascent: 800
Descent: 200
InvalidEm: 0
LayerCount: 2
Layer: 0 0 "+tLe6dAAA" 1
Layer: 1 0 "+xV66dAAA" 0
XUID: [1021 301 929134589 10635]
OS2Version: 0
OS2_WeightWidthSlopeOnly: 0
OS2_UseTypoMetrics: 1
CreationTime: 1610959698
ModificationTime: 1610968718
OS2TypoAscent: 0
OS2TypoAOffset: 1
OS2TypoDescent: 0
OS2TypoDOffset: 1
OS2TypoLinegap: 0
OS2WinAscent: 0
OS2WinAOffset: 1
OS2WinDescent: 0
OS2WinDOffset: 1
HheadAscent: 0
HheadAOffset: 1
HheadDescent: 0
HheadDOffset: 1
OS2Vendor: 'PfEd'
DEI: 91125
Encoding: ISO8859-1
UnicodeInterp: none
NameList: AGL For New Fonts
DisplaySize: -24
AntiAlias: 1
FitToEm: 0
WinInfo: 39 39 21
BeginChars: 11479 11223

StartChar: "+MTEA"
Encoding: 256 12593 0
Width: -236
VWidth: -71
Flags: HW
LayerCount: 2
Fore
SplineSet
753.122070312 618.483398438 m 27
 534.788085938 618.483398438 424.63671875 552.008789062 206.302734375 552.008789062 c 27
 92.2177734375 552.008789062 90.2509765625 373.9375 206.302734375 373.9375 c 27
 375.462890625 373.9375 623.301757812 542.51171875 623.301757812 440.41796875 c 3
 623.301757812 315.767578125 564 255.24609375 564 130.58984375 c 31
 564 71.232421875 741.3203125 79.5205078125 741.3203125 138.877929688 c 3
 741.3203125 322.890625 820 424.984375 820 608.986328125 c 27
 820 625.60546875 780.66015625 618.483398438 753.122070312 618.483398438 c 27
EndSplineSet
EndChar

StartChar: "+MTIA"
Encoding: 257 12594 1
Width: -11
VWidth: 3
Flags: HW
LayerCount: 2
Fore
SplineSet
797.59765625 586.9453125 m 31
 797.59765625 665.614257812 645.044921875 579.165039062 547.965820312 579.165039062 c 27
 476.489257812 579.165039062 518.094726562 433.9296875 589.571289062 433.9296875 c 27
 645.044921875 433.9296875 730.388671875 494.444335938 730.388671875 449.490234375 c 27
 730.388671875 331.0546875 672.78125 267.083007812 672.78125 148.647460938 c 27
 672.78125 101.96484375 820 107.151367188 820 153.833984375 c 27
 820 323.274414062 797.59765625 417.504882812 797.59765625 586.9453125 c 31
477.556640625 568.791015625 m 27
 477.556640625 657.833007812 309.001953125 527.294921875 199.120117188 527.294921875 c 27
 118.04296875 527.294921875 86.0390625 361.3125 167.116210938 361.3125 c 27
 248.193359375 361.3125 368.7421875 465.916015625 368.7421875 400.21484375 c 27
 368.7421875 292.153320312 307.934570312 235.9609375 307.934570312 127.899414062 c 27
 307.934570312 50.958984375 541.564453125 102.829101562 541.564453125 179.768554688 c 27
 541.564453125 332.784179688 477.556640625 415.775390625 477.556640625 568.791015625 c 27
EndSplineSet
EndChar

StartChar: "+MTMA"
Encoding: 258 12595 2
Width: 42
VWidth: -5
Flags: HW
LayerCount: 2
Fore
SplineSet
563.032226562 597.155273438 m 27
 563.032226562 390.649414062 425.237304688 323.837890625 425.237304688 117.33203125 c 27
 425.237304688 60.64453125 479.859375 114.294921875 514.618164062 114.294921875 c 27
 570.48046875 114.294921875 546.2734375 299.54296875 602.13671875 299.54296875 c 27
 672.274414062 299.54296875 658.620117188 90 728.7578125 90 c 27
 769.723632812 90 820 108.220703125 820 175.032226562 c 27
 820 364.329101562 637.516601562 368.377929688 637.516601562 557.67578125 c 27
 637.516601562 607.27734375 563.032226562 646.756835938 563.032226562 597.155273438 c 27
369.126953125 578.260742188 m 31
 310.78125 578.260742188 243.374023438 575.897460938 185.028320312 575.897460938 c 3
 137.235351562 575.897460938 92.6982421875 443.734375 140.4921875 443.734375 c 27
 188.286132812 443.734375 285.581054688 505.037109375 285.581054688 427.091796875 c 3
 285.581054688 319.7890625 283.719726562 258.0390625 283.719726562 150.737304688 c 27
 283.719726562 84.9384765625 386.133789062 103.16015625 386.133789062 168.958984375 c 27
 386.133789062 347.120117188 408.23046875 403.13671875 408.23046875 581.297851562 c 31
 408.23046875 606.60546875 384.64453125 578.260742188 369.126953125 578.260742188 c 31
EndSplineSet
EndChar

StartChar: "+MTQA"
Encoding: 259 12596 3
Width: -109
VWidth: -168
Flags: HW
LayerCount: 2
Fore
SplineSet
153.962890625 479.250976562 m 31
 153.962890625 327.088867188 56.5537109375 90 191.668945312 90 c 27
 413.71875 90 538.360351562 136.001953125 760.409179688 136.001953125 c 27
 828.491210938 136.001953125 844.202148438 330.627929688 776.12109375 330.627929688 c 27
 607.48828125 330.627929688 514.26953125 281.086914062 345.637695312 281.086914062 c 27
 237.754882812 281.086914062 333.068359375 470.994140625 333.068359375 592.487304688 c 27
 333.068359375 667.978515625 230.422851562 564.178710938 163.389648438 564.178710938 c 27
 134.061523438 564.178710938 153.962890625 512.278320312 153.962890625 479.250976562 c 31
EndSplineSet
EndChar

StartChar: "+MTUA"
Encoding: 260 12597 4
Width: 65
VWidth: -12
Flags: HW
LayerCount: 2
Fore
SplineSet
510.80859375 589.885742188 m 27
 624.837890625 589.885742188 687.751953125 620 801.782226562 620 c 27
 824.719726562 620 826.685546875 529.659179688 803.749023438 529.659179688 c 27
 759.184570312 529.659179688 691.684570312 561.780273438 691.684570312 493.522460938 c 27
 691.684570312 368.048828125 784.087890625 329.905273438 784.087890625 204.431640625 c 27
 784.087890625 169.298828125 750.009765625 183.3515625 727.073242188 183.3515625 c 27
 660.2265625 183.3515625 697.58203125 400.169921875 630.737304688 400.169921875 c 27
 565.202148438 400.169921875 619.595703125 171.306640625 554.061523438 171.306640625 c 27
 531.124023438 171.306640625 502.943359375 181.344726562 502.943359375 216.4765625 c 27
 502.943359375 324.885742188 571.755859375 364.034179688 571.755859375 472.442382812 c 27
 571.755859375 523.635742188 493.114257812 472.442382812 493.114257812 523.635742188 c 27
 493.114257812 551.7421875 492.458007812 589.885742188 510.80859375 589.885742188 c 27
152.577148438 550 m 27
 152.577148438 370.322265625 63.20703125 90 180.513671875 90 c 3
 281.4375 90 331.243164062 180.340820312 432.166992188 180.340820312 c 27
 471.487304688 180.340820312 497.045898438 330.909179688 457.725585938 330.909179688 c 27
 370.564453125 330.909179688 322.723632812 285.73828125 235.5625 285.73828125 c 23
 206.43359375 285.73828125 261.9609375 451.36328125 263.086914062 559.772460938 c 4
 263.086914062 607.954101562 152.577148438 598.181640625 152.577148438 550 c 27
EndSplineSet
EndChar

StartChar: "+MTYA"
Encoding: 261 12598 5
Width: -2
VWidth: -36
Flags: HW
LayerCount: 2
Fore
SplineSet
595.407226562 303.15234375 m 27
 595.407226562 329.076171875 627.841796875 314.673828125 648.69140625 314.673828125 c 27
 676.48046875 314.673828125 699.6484375 288.75 699.6484375 254.184570312 c 27
 699.6484375 210.017578125 663.353515625 185.0546875 627.841796875 185.0546875 c 27
 604.673828125 185.0546875 574.556640625 187.934570312 574.556640625 216.739257812 c 27
 574.556640625 252.264648438 595.407226562 267.626953125 595.407226562 303.15234375 c 27
593.090820312 602.716796875 m 27
 563.74609375 602.716796875 601.5859375 513.423828125 572.241210938 513.423828125 c 27
 529.767578125 513.423828125 505.828125 501.90234375 463.35546875 501.90234375 c 27
 431.694335938 501.90234375 431.694335938 401.086914062 463.35546875 401.086914062 c 27
 504.284179688 401.086914062 567.607421875 457.735351562 567.607421875 406.84765625 c 27
 567.607421875 315.633789062 481.888671875 290.669921875 481.888671875 199.456054688 c 27
 481.888671875 129.366210938 539.034179688 90 595.407226562 90 c 27
 639.424804688 90 657.947265625 136.086914062 701.965820312 136.086914062 c 27
 755.258789062 136.086914062 762.209960938 222.5 762.209960938 288.75 c 27
 762.209960938 341.557617188 699.6484375 345.3984375 699.6484375 398.206054688 c 27
 699.6484375 452.934570312 801.59375 401.086914062 801.59375 455.815429688 c 27
 801.59375 492.30078125 837.888671875 547.989257812 808.543945312 547.989257812 c 27
 759.12109375 547.989257812 730.538085938 542.228515625 681.115234375 542.228515625 c 27
 654.859375 542.228515625 730.538085938 620 704.28125 620 c 27
 660.264648438 620 637.108398438 602.716796875 593.090820312 602.716796875 c 27
120 534 m 31
 120 375.576171875 150.1171875 289.163085938 150.1171875 130.739257812 c 31
 150.1171875 23.203125 309.680664062 193.6953125 396.171875 193.6953125 c 3
 444.821289062 193.6953125 465.671875 346.358398438 417.021484375 346.358398438 c 27
 349.837890625 346.358398438 315.0859375 308.913085938 247.90234375 308.913085938 c 27
 172.99609375 308.913085938 234.001953125 454.854492188 234.001953125 547.989257812 c 3
 234.001953125 589.275390625 120 575.286132812 120 534 c 31
EndSplineSet
EndChar

StartChar: "+MTcA"
Encoding: 262 12599 6
Width: -50
VWidth: 64
Flags: HW
LayerCount: 2
Fore
SplineSet
232.938476562 582.044921875 m 31
 452.069335938 582.044921875 572.591796875 620 791.72265625 620 c 27
 852.592773438 620 805.114257812 500.296875 744.244140625 500.296875 c 27
 590.852539062 500.296875 510.504882812 438.985351562 357.112304688 438.985351562 c 27
 287.720703125 438.985351562 280.416992188 295.92578125 349.80859375 295.92578125 c 27
 497.11328125 295.92578125 578.678710938 322.202148438 725.983398438 322.202148438 c 27
 794.158203125 322.202148438 750.331054688 187.901367188 682.157226562 187.901367188 c 27
 482.50390625 187.901367188 170.850585938 -6.736328125 170.850585938 152.866210938 c 27
 170.850585938 321.229492188 22.3291015625 582.044921875 232.938476562 582.044921875 c 31
EndSplineSet
EndChar

StartChar: "+MTgA"
Encoding: 263 12600 7
Width: 33
VWidth: -96
Flags: HW
LayerCount: 2
Fore
SplineSet
505.462890625 608.802734375 m 31
 623.631835938 608.802734375 690.236328125 620 808.40625 620 c 27
 837.76953125 620 805.541015625 500.5625 776.177734375 500.5625 c 27
 695.25 500.5625 650.846679688 455.774414062 569.918945312 455.774414062 c 27
 515.489257812 455.774414062 517.637695312 213.168945312 572.067382812 213.168945312 c 27
 645.833984375 213.168945312 687.372070312 246.759765625 761.138671875 246.759765625 c 27
 792.650390625 246.759765625 771.165039062 112.393554688 739.653320312 112.393554688 c 27
 646.549804688 112.393554688 594.268554688 90 501.166015625 90 c 27
 485.41015625 90 471.0859375 107.416992188 471.0859375 134.788085938 c 27
 471.0859375 321.408203125 398.036132812 608.802734375 505.462890625 608.802734375 c 31
211.11328125 575.2109375 m 27
 304.216796875 575.2109375 356.498046875 601.337890625 449.600585938 601.337890625 c 27
 474.666992188 601.337890625 448.884765625 500.5625 423.818359375 500.5625 c 27
 360.078125 500.5625 328.56640625 440.844726562 264.827148438 440.844726562 c 27
 223.2890625 440.844726562 214.694335938 257.95703125 256.232421875 257.95703125 c 27
 329.999023438 257.95703125 371.537109375 239.294921875 445.303710938 239.294921875 c 27
 469.654296875 239.294921875 448.168945312 138.520507812 423.818359375 138.520507812 c 27
 320.688476562 138.520507812 262.678710938 145.985351562 159.548828125 145.985351562 c 27
 63.5810546875 145.985351562 172.440429688 404.764648438 172.440429688 571.478515625 c 27
 172.440429688 597.60546875 196.07421875 575.2109375 211.11328125 575.2109375 c 27
EndSplineSet
EndChar

StartChar: "+MTkA"
Encoding: 264 12601 8
Width: -58
VWidth: 90
Flags: HW
LayerCount: 2
Fore
SplineSet
185.729492188 548.69921875 m 31
 402.094726562 548.69921875 517.421875 620 733.787109375 620 c 27
 858.299804688 620 712.35546875 469.4765625 712.35546875 372.825195312 c 27
 712.35546875 257.16015625 493.948242188 294.39453125 344.942382812 294.39453125 c 27
 291.87109375 294.39453125 261.25390625 192.197265625 314.32421875 192.197265625 c 27
 499.051757812 192.197265625 598.048828125 246.861328125 782.776367188 246.861328125 c 27
 856.258789062 246.861328125 810.33203125 104.259765625 736.849609375 104.259765625 c 27
 519.462890625 104.259765625 396.9921875 90 179.606445312 90 c 27
 53.052734375 90 167.359375 243.692382812 167.359375 341.928710938 c 27
 167.359375 471.061523438 411.280273438 434.619140625 577.63671875 434.619140625 c 27
 611.31640625 434.619140625 657.243164062 491.659179688 623.563476562 491.659179688 c 27
 459.248046875 491.659179688 368.416015625 465.515625 204.100585938 465.515625 c 27
 161.235351562 465.515625 142.865234375 548.69921875 185.729492188 548.69921875 c 31
EndSplineSet
EndChar

StartChar: "+MToA"
Encoding: 265 12602 9
Width: 0
VWidth: 43
Flags: HW
LayerCount: 2
Fore
SplineSet
820 572.620117188 m 31
 820 682.1875 660.5546875 567.40234375 559.08984375 567.40234375 c 27
 511.578125 567.40234375 477.756835938 442.181640625 525.267578125 442.181640625 c 27
 607.40625 442.181640625 735.4453125 504.791992188 735.4453125 416.09375 c 27
 735.4453125 315.22265625 675.049804688 266.525390625 675.049804688 165.653320312 c 27
 675.049804688 112.608398438 800.672851562 102.173828125 800.672851562 155.21875 c 27
 800.672851562 317.831054688 820 410.006835938 820 572.620117188 c 31
356.16015625 567.40234375 m 27
 282.879882812 567.40234375 245.836914062 523.053710938 172.556640625 523.053710938 c 27
 133.903320312 523.053710938 121.82421875 416.09375 160.477539062 416.09375 c 27
 245.836914062 416.09375 290.126953125 457.833984375 375.486328125 457.833984375 c 27
 416.555664062 457.833984375 356.16015625 363.918945312 315.090820312 363.918945312 c 27
 239.39453125 363.918945312 129.071289062 385.659179688 129.071289062 303.91796875 c 27
 129.071289062 218.698242188 91.2236328125 90 170.140625 90 c 27
 288.516601562 90 348.912109375 157.827148438 467.288085938 157.827148438 c 27
 501.109375 157.827148438 462.456054688 241.307617188 428.634765625 241.307617188 c 27
 345.69140625 241.307617188 216.041015625 149.131835938 216.041015625 238.69921875 c 27
 216.041015625 329.135742188 421.387695312 216.08984375 421.387695312 306.526367188 c 27
 421.387695312 412.616210938 474.53515625 466.530273438 474.53515625 572.620117188 c 27
 474.53515625 622.185546875 402.060546875 567.40234375 356.16015625 567.40234375 c 27
EndSplineSet
EndChar

StartChar: "+MTsA"
Encoding: 266 12603 10
Width: 86
VWidth: 82
Flags: HW
LayerCount: 2
Fore
SplineSet
625.241210938 462.642578125 m 31
 625.241210938 508.323242188 739.196289062 516.755859375 739.196289062 471.076171875 c 27
 739.196289062 382.52734375 759.915039062 334.036132812 759.915039062 245.487304688 c 27
 759.915039062 194.888671875 635.600585938 169.588867188 635.600585938 220.188476562 c 27
 635.600585938 315.061523438 625.241210938 367.76953125 625.241210938 462.642578125 c 31
554.795898438 561.733398438 m 27
 554.795898438 407.124023438 558.940429688 319.981445312 558.940429688 165.372070312 c 27
 558.940429688 64.8759765625 811.712890625 64.8759765625 811.712890625 165.372070312 c 27
 811.712890625 298.8984375 820 373.391601562 820 506.916992188 c 27
 820 614.440429688 554.795898438 669.256835938 554.795898438 561.733398438 c 27
341.389648438 559.625 m 27
 283.376953125 559.625 250.2265625 549.083984375 192.212890625 549.083984375 c 27
 136.961914062 549.083984375 89.30859375 414.15234375 144.559570312 414.15234375 c 27
 223.291992188 414.15234375 260.5859375 464.750976562 339.318359375 464.750976562 c 27
 377.302734375 464.750976562 379.375 365.661132812 341.389648438 365.661132812 c 27
 253.6796875 365.661132812 123.83984375 400.096679688 123.83984375 310.844726562 c 27
 123.83984375 238.459960938 108.646484375 133.748046875 179.78125 133.748046875 c 27
 288.2109375 133.748046875 346.915039062 165.372070312 455.344726562 165.372070312 c 27
 494.7109375 165.372070312 509.21484375 266.571289062 469.848632812 266.571289062 c 27
 371.087890625 266.571289062 315.836914062 258.137695312 217.076171875 258.137695312 c 27
 209.478515625 258.137695312 211.55078125 277.112304688 219.147460938 277.112304688 c 27
 305.477539062 277.112304688 436.697265625 227.215820312 436.697265625 315.061523438 c 27
 436.697265625 410.638671875 428.41015625 464.048828125 428.41015625 559.625 c 27
 428.41015625 594.060546875 375.231445312 559.625 341.389648438 559.625 c 27
EndSplineSet
EndChar

StartChar: "+MTwA"
Encoding: 267 12604 11
Width: 37
VWidth: 75
Flags: HW
LayerCount: 2
Fore
SplineSet
621.474609375 275.655273438 m 31
 621.474609375 308.986328125 700.012695312 321.388671875 700.012695312 288.057617188 c 27
 700.012695312 246.974609375 700.012695312 223.720703125 700.012695312 182.637695312 c 27
 700.012695312 150.857421875 624.383789062 163.259765625 624.383789062 195.040039062 c 27
 624.383789062 226.821289062 621.474609375 243.874023438 621.474609375 275.655273438 c 31
560.389648438 605.090820312 m 27
 560.389648438 439.2109375 529.84765625 347.743164062 529.84765625 181.862304688 c 27
 529.84765625 60.9404296875 820 58.615234375 820 179.537109375 c 27
 820 339.216796875 796.002929688 429.133789062 796.002929688 588.813476562 c 27
 796.002929688 615.943359375 730.5546875 613.618164062 730.5546875 586.48828125 c 27
 730.5546875 502.772460938 700.012695312 458.588867188 700.012695312 374.874023438 c 27
 700.012695312 339.216796875 614.9296875 343.868164062 614.9296875 379.524414062 c 27
 614.9296875 464.790039062 617.111328125 512.849609375 617.111328125 598.115234375 c 27
 617.111328125 622.14453125 560.389648438 629.12109375 560.389648438 605.090820312 c 27
370.590820312 557.032226562 m 27
 282.599609375 557.032226562 236.05859375 515.174804688 148.067382812 515.174804688 c 27
 119.706054688 515.174804688 119.706054688 438.435546875 148.067382812 438.435546875 c 27
 218.60546875 438.435546875 258.6015625 447.737304688 329.139648438 447.737304688 c 27
 364.772460938 447.737304688 332.048828125 357.044921875 296.416015625 357.044921875 c 27
 236.78515625 357.044921875 145.885742188 397.352539062 145.885742188 333.791015625 c 27
 145.885742188 249.299804688 79.7099609375 117.525390625 158.975585938 117.525390625 c 27
 265.146484375 117.525390625 325.50390625 131.478515625 431.674804688 131.478515625 c 27
 472.3984375 131.478515625 468.03515625 243.098632812 427.3125 243.098632812 c 27
 345.138671875 243.098632812 297.870117188 243.098632812 215.696289062 243.098632812 c 27
 209.15234375 243.098632812 206.970703125 261.702148438 213.515625 261.702148438 c 27
 296.416015625 261.702148438 422.94921875 217.51953125 422.94921875 305.885742188 c 27
 422.94921875 405.87890625 464.399414062 557.032226562 370.590820312 557.032226562 c 27
EndSplineSet
EndChar

StartChar: "+MT0A"
Encoding: 268 12605 12
Width: 57
VWidth: 68
Flags: HW
LayerCount: 2
Fore
SplineSet
608.884765625 599.192382812 m 31
 608.884765625 439.288085938 488.528320312 383.90234375 488.528320312 223.998046875 c 27
 488.528320312 181.118164062 506.286132812 135.559570312 537.854492188 135.559570312 c 27
 617.434570312 135.559570312 547.0625 384.795898438 626.641601562 384.795898438 c 27
 705.563476562 384.795898438 666.102539062 162.359375 745.024414062 162.359375 c 27
 777.908203125 162.359375 820 171.291992188 820 215.958007812 c 27
 820 334.76953125 703.590820312 357.102539062 703.590820312 475.9140625 c 27
 703.590820312 516.11328125 713.456054688 575.073242188 683.860351562 575.073242188 c 27
 653.606445312 575.073242188 608.884765625 640.28515625 608.884765625 599.192382812 c 31
336.604492188 615.272460938 m 27
 272.809570312 615.272460938 236.63671875 599.192382812 172.841796875 599.192382812 c 27
 130.091796875 599.192382812 120.2265625 451.794921875 162.9765625 451.794921875 c 27
 233.348632812 451.794921875 268.205078125 505.393554688 338.577148438 505.393554688 c 27
 368.172851562 505.393554688 346.469726562 406.235351562 316.874023438 406.235351562 c 27
 251.763671875 406.235351562 155.083984375 441.075195312 155.083984375 352.635742188 c 27
 155.083984375 249.904296875 77.4775390625 90 153.111328125 90 c 27
 266.889648438 90 329.370117188 124.83984375 443.1484375 124.83984375 c 27
 476.690429688 124.83984375 462.87890625 240.078125 429.336914062 240.078125 c 27
 344.49609375 240.078125 297.143554688 256.157226562 212.302734375 256.157226562 c 27
 200.463867188 256.157226562 210.329101562 296.356445312 222.16796875 296.356445312 c 27
 289.909179688 296.356445312 393.822265625 239.184570312 393.822265625 331.196289062 c 27
 393.822265625 436.608398438 393.822265625 496.4609375 393.822265625 601.872070312 c 27
 393.822265625 632.245117188 358.965820312 615.272460938 336.604492188 615.272460938 c 27
EndSplineSet
EndChar

StartChar: "+MT4A"
Encoding: 269 12606 13
Width: 94
VWidth: 81
Flags: HW
LayerCount: 2
Fore
SplineSet
489.374023438 554.704101562 m 31
 489.374023438 676.028320312 648.303710938 591.1015625 751.504882812 591.1015625 c 27
 779.024414062 591.1015625 756.3203125 513.454101562 728.80078125 513.454101562 c 27
 658.624023438 513.454101562 621.471679688 474.630859375 551.294921875 474.630859375 c 27
 536.159179688 474.630859375 544.415039062 430.954101562 559.55078125 430.954101562 c 27
 657.248046875 430.954101562 711.600585938 457.645507812 809.296875 457.645507812 c 27
 834.065429688 457.645507812 811.361328125 387.27734375 786.592773438 387.27734375 c 27
 709.536132812 387.27734375 669.631835938 341.174804688 592.575195312 341.174804688 c 27
 567.806640625 341.174804688 557.487304688 268.380859375 582.254882812 268.380859375 c 27
 664.127929688 268.380859375 708.848632812 246.541992188 790.720703125 246.541992188 c 27
 816.865234375 246.541992188 806.544921875 168.89453125 780.400390625 168.89453125 c 27
 679.952148438 168.89453125 524.462890625 16.8359375 524.462890625 134.923828125 c 27
 524.462890625 299.116210938 489.374023438 390.512695312 489.374023438 554.704101562 c 31
336.63671875 598.380859375 m 27
 265.084960938 598.380859375 224.4921875 588.674804688 152.939453125 588.674804688 c 27
 120.603515625 588.674804688 139.1796875 494.04296875 171.515625 494.04296875 c 27
 234.8125 494.04296875 269.212890625 513.454101562 332.508789062 513.454101562 c 27
 368.28515625 513.454101562 355.901367188 406.689453125 320.125 406.689453125 c 27
 247.884765625 406.689453125 138.491210938 452.79296875 138.491210938 367.866210938 c 27
 138.491210938 263.52734375 80.69921875 103.379882812 169.452148438 103.379882812 c 27
 269.212890625 103.379882812 321.500976562 156.762695312 421.26171875 156.762695312 c 27
 457.7265625 156.762695312 451.534179688 265.954101562 415.069335938 265.954101562 c 27
 331.821289062 265.954101562 285.724609375 251.395507812 202.4765625 251.395507812 c 27
 178.395507812 251.395507812 182.524414062 324.189453125 206.604492188 324.189453125 c 27
 304.30078125 324.189453125 456.350585938 211.762695312 456.350585938 326.616210938 c 27
 456.350585938 432.572265625 415.069335938 487.572265625 415.069335938 593.528320312 c 27
 415.069335938 629.92578125 367.59765625 598.380859375 336.63671875 598.380859375 c 27
EndSplineSet
EndChar

StartChar: "+MT8A"
Encoding: 270 12607 14
Width: 102
VWidth: 3
Flags: HW
LayerCount: 2
Fore
SplineSet
662.932617188 515.442382812 m 31
 662.932617188 548.79296875 594.662109375 550.595703125 594.662109375 517.245117188 c 27
 594.662109375 439.728515625 601.924804688 396.462890625 601.924804688 318.946289062 c 27
 601.924804688 291.00390625 658.575195312 285.595703125 658.575195312 313.538085938 c 27
 658.575195312 391.956054688 662.932617188 437.024414062 662.932617188 515.442382812 c 31
496.61328125 568.623046875 m 27
 617.176757812 568.623046875 683.268554688 620 803.83203125 620 c 27
 836.515625 620 814.7265625 519.94921875 782.043945312 519.94921875 c 27
 756.624023438 519.94921875 716.677734375 546.088867188 716.677734375 514.541015625 c 27
 716.677734375 440.629882812 705.783203125 399.166992188 705.783203125 325.255859375 c 27
 705.783203125 266.666992188 816.905273438 324.354492188 816.905273438 265.765625 c 27
 816.905273438 227.006835938 828.526367188 168.418945312 797.295898438 168.418945312 c 27
 691.984375 168.418945312 632.428710938 171.123046875 527.1171875 171.123046875 c 27
 488.624023438 171.123046875 492.255859375 236.921875 492.255859375 284.694335938 c 27
 492.255859375 318.946289062 561.979492188 269.37109375 561.979492188 303.623046875 c 27
 561.979492188 381.139648438 544.547851562 423.50390625 544.547851562 501.020507812 c 27
 544.547851562 537.075195312 470.466796875 470.374023438 470.466796875 506.428710938 c 27
 470.466796875 533.469726562 474.825195312 568.623046875 496.61328125 568.623046875 c 27
392.028320312 587.551757812 m 27
 304.147460938 587.551757812 255.486328125 560.510742188 167.60546875 560.510742188 c 27
 121.123046875 560.510742188 99.3349609375 414.490234375 145.817382812 414.490234375 c 27
 233.698242188 414.490234375 273.643554688 492.908203125 361.524414062 492.908203125 c 27
 384.765625 492.908203125 386.944335938 419.8984375 363.703125 419.8984375 c 27
 278.727539062 419.8984375 161.069335938 428.010742188 161.069335938 322.551757812 c 27
 161.069335938 235.119140625 99.3349609375 98.1123046875 169.784179688 98.1123046875 c 27
 276.548828125 98.1123046875 337.556640625 90 444.3203125 90 c 27
 487.171875 90 498.065429688 225.204101562 455.21484375 225.204101562 c 27
 376.776367188 225.204101562 333.19921875 230.612304688 254.759765625 230.612304688 c 27
 240.234375 230.612304688 233.698242188 276.58203125 248.223632812 276.58203125 c 27
 328.115234375 276.58203125 448.678710938 226.10546875 448.678710938 325.255859375 c 27
 448.678710938 428.010742188 433.426757812 484.795898438 433.426757812 587.551757812 c 27
 433.426757812 607.380859375 408.006835938 587.551757812 392.028320312 587.551757812 c 27
EndSplineSet
EndChar

StartChar: "+MUAA"
Encoding: 271 12608 15
Width: 54
VWidth: -30
Flags: HW
LayerCount: 2
Fore
SplineSet
569.631835938 317.142578125 m 31
 569.631835938 354.564453125 605.131835938 351.083984375 631.004882812 351.083984375 c 27
 652.666015625 351.083984375 677.938476562 340.640625 677.938476562 309.310546875 c 27
 677.938476562 270.147460938 679.743164062 215.3203125 652.666015625 215.3203125 c 27
 624.38671875 215.3203125 608.7421875 220.541992188 580.461914062 220.541992188 c 27
 553.987304688 220.541992188 569.631835938 278.850585938 569.631835938 317.142578125 c 31
573.241210938 437.241210938 m 27
 524.50390625 437.241210938 488.401367188 374.581054688 488.401367188 304.088867188 c 27
 488.401367188 217.060546875 525.70703125 131.7734375 585.877929688 131.7734375 c 27
 636.420898438 131.7734375 663.497070312 165.713867188 714.040039062 165.713867188 c 27
 748.336914062 165.713867188 759.16796875 225.763671875 759.16796875 275.369140625 c 27
 759.16796875 314.532226562 768.193359375 371.970703125 741.1171875 371.970703125 c 27
 697.192382812 371.970703125 678.540039062 424.1875 634.615234375 424.1875 c 27
 610.546875 424.1875 597.309570312 437.241210938 573.241210938 437.241210938 c 27
560.60546875 606.9453125 m 27
 582.267578125 606.9453125 593.09765625 620 614.758789062 620 c 27
 637.624023438 620 633.412109375 559.950195312 656.276367188 559.950195312 c 27
 703.209960938 559.950195312 730.286132812 559.950195312 777.21875 559.950195312 c 27
 798.879882812 559.950195312 834.982421875 499.901367188 813.321289062 499.901367188 c 27
 683.353515625 499.901367188 611.149414062 468.571289062 481.180664062 468.571289062 c 27
 466.740234375 468.571289062 479.375976562 518.176757812 493.817382812 518.176757812 c 27
 519.088867188 518.176757812 528.114257812 554.728515625 553.385742188 554.728515625 c 27
 567.826171875 554.728515625 546.165039062 606.9453125 560.60546875 606.9453125 c 27
333.162109375 541.674804688 m 27
 258.55078125 541.674804688 216.431640625 518.176757812 141.8203125 518.176757812 c 27
 106.3203125 518.176757812 117.150390625 387.635742188 152.651367188 387.635742188 c 27
 218.838867188 387.635742188 254.338867188 426.797851562 320.526367188 426.797851562 c 27
 357.23046875 426.797851562 294.051757812 324.975585938 257.34765625 324.975585938 c 27
 211.016601562 324.975585938 138.2109375 391.986328125 138.2109375 324.975585938 c 27
 138.2109375 236.20703125 94.8876953125 97.83203125 156.26171875 97.83203125 c 27
 257.94921875 97.83203125 314.509765625 90 416.197265625 90 c 27
 447.485351562 90 434.849609375 204.876953125 403.561523438 204.876953125 c 27
 325.94140625 204.876953125 282.619140625 202.265625 204.999023438 202.265625 c 27
 186.948242188 202.265625 199.583984375 267.537109375 217.634765625 267.537109375 c 27
 283.822265625 267.537109375 321.127929688 285.8125 387.315429688 285.8125 c 27
 452.901367188 285.8125 446.883789062 418.094726562 446.883789062 512.955078125 c 27
 446.883789062 578.2265625 378.290039062 541.674804688 333.162109375 541.674804688 c 27
EndSplineSet
EndChar

StartChar: "+MUEA"
Encoding: 272 12609 16
Width: -232
VWidth: -1626
Flags: HW
LayerCount: 2
Fore
SplineSet
666 483.653320312 m 31
 522.5 483.653320312 442 487.545898438 298.5 487.545898438 c 27
 272.833984375 487.545898438 232 508.301757812 232 479.76171875 c 27
 232 392.845703125 242.5 344.846679688 242.5 257.930664062 c 27
 242.5 231.985351562 278.666992188 257.930664062 302 257.930664062 c 27
 415.166992188 257.930664062 479.333984375 254.0390625 592.5 254.0390625 c 27
 625.166992188 254.0390625 676.5 209.931640625 676.5 246.254882812 c 27
 676.5 338.360351562 748.833984375 483.653320312 666 483.653320312 c 31
165.5 102.258789062 m 27
 165.5 294.25390625 120 400.62890625 120 592.624023438 c 27
 120 643.216796875 190 608.190429688 235.5 608.190429688 c 27
 417.5 608.190429688 519 604.298828125 701 604.298828125 c 27
 741.833984375 604.298828125 806 641.919921875 806 596.515625 c 27
 806 409.709960938 820 304.631835938 820 117.826171875 c 27
 820 82.7998046875 771 113.934570312 739.5 113.934570312 c 27
 548.166992188 113.934570312 440.833984375 125.609375 249.5 125.609375 c 27
 215.666992188 125.609375 165.5 64.638671875 165.5 102.258789062 c 27
EndSplineSet
EndChar

StartChar: "+MUIA"
Encoding: 273 12610 17
Width: 25
VWidth: -91
Flags: HW
LayerCount: 2
Fore
SplineSet
320.520507812 305.595703125 m 31
 450.735351562 305.595703125 524.291015625 293.275390625 654.505859375 293.275390625 c 27
 687.307617188 293.275390625 675.379882812 207.037109375 642.577148438 207.037109375 c 27
 547.153320312 207.037109375 493.477539062 191.637695312 398.052734375 191.637695312 c 27
 359.287109375 191.637695312 299.646484375 166.998046875 299.646484375 207.037109375 c 27
 299.646484375 246.049804688 282.748046875 305.595703125 320.520507812 305.595703125 c 31
156.509765625 576.629882812 m 27
 156.509765625 384.647460938 39.2177734375 90 225.096679688 90 c 27
 421.909179688 90 532.243164062 117.71875 729.055664062 117.71875 c 27
 898.036132812 117.71875 779.75 386.700195312 779.75 561.23046875 c 27
 779.75 661.841796875 629.655273438 592.029296875 532.243164062 592.029296875 c 27
 463.657226562 592.029296875 684.325195312 431.873046875 615.739257812 431.873046875 c 27
 497.453125 431.873046875 432.842773438 385.673828125 314.556640625 385.673828125 c 27
 245.970703125 385.673828125 314.556640625 496.551757812 314.556640625 567.389648438 c 27
 314.556640625 631.041992188 156.509765625 640.282226562 156.509765625 576.629882812 c 27
EndSplineSet
EndChar

StartChar: "+MUMA"
Encoding: 274 12611 18
Width: 41
VWidth: 9
Flags: HW
LayerCount: 2
Fore
SplineSet
573.278320312 323.017578125 m 31
 629.611328125 323.017578125 660.986328125 317.611328125 717.318359375 317.611328125 c 27
 742.276367188 317.611328125 746.5546875 236.512695312 721.596679688 236.512695312 c 27
 670.96875 236.512695312 642.446289062 231.106445312 591.818359375 231.106445312 c 27
 562.583007812 231.106445312 544.04296875 323.017578125 573.278320312 323.017578125 c 31
480.580078125 573.521484375 m 27
 480.580078125 401.413085938 513.380859375 305.897460938 513.380859375 133.788085938 c 27
 513.380859375 26.55859375 645.298828125 150.0078125 730.153320312 150.0078125 c 27
 765.807617188 150.0078125 820 126.579101562 820 171.633789062 c 27
 820 320.314453125 791.477539062 401.413085938 791.477539062 550.092773438 c 27
 791.477539062 596.950195312 695.926757812 605.9609375 695.926757812 559.104492188 c 27
 695.926757812 505.0390625 705.909179688 476.204101562 705.909179688 422.137695312 c 27
 705.909179688 358.16015625 628.184570312 402.314453125 577.556640625 402.314453125 c 27
 516.233398438 402.314453125 557.590820312 523.060546875 557.590820312 600.5546875 c 27
 557.590820312 640.202148438 480.580078125 613.169921875 480.580078125 573.521484375 c 27
238.849609375 224.798828125 m 27
 223.162109375 224.798828125 223.162109375 276.161132812 238.849609375 276.161132812 c 27
 283.772460938 276.161132812 309.443359375 262.64453125 354.366210938 262.64453125 c 27
 380.037109375 262.64453125 362.922851562 181.545898438 337.252929688 181.545898438 c 27
 296.607421875 181.545898438 279.494140625 224.798828125 238.849609375 224.798828125 c 27
146.86328125 568.115234375 m 27
 146.86328125 401.413085938 62.0078125 143.700195312 193.92578125 143.700195312 c 27
 301.599609375 143.700195312 467.744140625 56.2939453125 467.744140625 192.359375 c 27
 467.744140625 340.138671875 427.099609375 420.3359375 427.099609375 568.115234375 c 27
 427.099609375 605.059570312 352.227539062 594.247070312 352.227539062 557.301757812 c 27
 352.227539062 473.5 335.11328125 427.544921875 335.11328125 343.743164062 c 27
 335.11328125 292.380859375 243.127929688 351.852539062 243.127929688 403.21484375 c 27
 243.127929688 468.09375 221.735351562 503.236328125 221.735351562 568.115234375 c 27
 221.735351562 605.059570312 146.86328125 605.059570312 146.86328125 568.115234375 c 27
EndSplineSet
EndChar

StartChar: "+MUQA"
Encoding: 275 12612 19
Width: 0
VWidth: 27
Flags: HW
LayerCount: 2
Fore
SplineSet
591.268554688 582.453125 m 31
 591.268554688 414.825195312 446.956054688 352.931640625 446.956054688 185.302734375 c 27
 446.956054688 155.215820312 465.747070312 128.567382812 492.053710938 128.567382812 c 27
 577.739257812 128.567382812 519.112304688 345.194335938 604.797851562 345.194335938 c 27
 707.018554688 345.194335938 696.49609375 144.040039062 798.716796875 144.040039062 c 27
 843.814453125 144.040039062 803.2265625 223.986328125 803.2265625 275.564453125 c 27
 803.2265625 397.631835938 643.129882812 406.228515625 643.129882812 528.296875 c 27
 643.129882812 559.243164062 591.268554688 613.400390625 591.268554688 582.453125 c 31
223.723632812 226.565429688 m 27
 190.65234375 226.565429688 179.377929688 321.984375 212.44921875 321.984375 c 27
 257.546875 321.984375 282.350585938 321.984375 327.448242188 321.984375 c 27
 357.512695312 321.984375 350.748046875 234.301757812 320.68359375 234.301757812 c 27
 283.102539062 234.301757812 261.3046875 226.565429688 223.723632812 226.565429688 c 27
120 592.76953125 m 27
 120 421.702148438 153.823242188 328.001953125 153.823242188 156.934570312 c 27
 153.823242188 45.1826171875 401.859375 83.8662109375 401.859375 195.618164062 c 27
 401.859375 341.755859375 446.956054688 420.842773438 446.956054688 566.98046875 c 27
 446.956054688 620.27734375 376.303710938 590.190429688 329.703125 590.190429688 c 27
 275.5859375 590.190429688 316.173828125 494.770507812 316.173828125 432.876953125 c 27
 316.173828125 386.45703125 212.44921875 383.877929688 212.44921875 430.298828125 c 27
 212.44921875 496.490234375 192.155273438 531.735351562 192.155273438 597.926757812 c 27
 192.155273438 630.592773438 120 625.435546875 120 592.76953125 c 27
EndSplineSet
EndChar

StartChar: "+MUUA"
Encoding: 276 12613 20
Width: -20
VWidth: 2
Flags: HW
LayerCount: 2
Fore
SplineSet
448.638671875 608.2578125 m 31
 448.638671875 398.689453125 120 361.873046875 120 152.3046875 c 27
 120 111.711914062 168.200195312 90 215.305664062 90 c 27
 343.474609375 90 277.747070312 319.392578125 405.916015625 319.392578125 c 27
 550.516601562 319.392578125 563.662109375 132.48046875 708.263671875 132.48046875 c 27
 765.227539062 132.48046875 820 162.688476562 820 211.776367188 c 27
 820 349.600585938 524.225585938 317.504882812 524.225585938 455.329101562 c 27
 524.225585938 505.361328125 524.225585938 532.737304688 524.225585938 582.76953125 c 27
 524.225585938 610.145507812 448.638671875 635.6328125 448.638671875 608.2578125 c 31
EndSplineSet
EndChar

StartChar: "+MUYA"
Encoding: 277 12614 21
Width: 53
VWidth: -219
Flags: HW
LayerCount: 2
Fore
SplineSet
624 601.734375 m 31
 624 423.518554688 527.076171875 356.05078125 527.076171875 177.834960938 c 27
 527.076171875 123.096679688 567.28125 112.913085938 598.153320312 112.913085938 c 27
 664.922851562 112.913085938 600.307617188 391.694335938 667.076171875 391.694335938 c 27
 731.69140625 391.694335938 699.383789062 154.920898438 764 154.920898438 c 27
 789.127929688 154.920898438 820 163.83203125 820 208.385742188 c 27
 820 371.326171875 684.307617188 385.329101562 684.307617188 548.26953125 c 27
 684.307617188 595.369140625 624 648.833984375 624 601.734375 c 31
240.615234375 582.639648438 m 27
 240.615234375 394.240234375 120 339.501953125 120 151.102539062 c 27
 120 106.548828125 148.717773438 90 173.845703125 90 c 27
 253.538085938 90 206.153320312 391.694335938 285.845703125 391.694335938 c 27
 364.102539062 391.694335938 341.127929688 124.370117188 419.383789062 124.370117188 c 27
 460.307617188 124.370117188 501.23046875 170.197265625 501.23046875 242.755859375 c 27
 501.23046875 423.518554688 413.640625 563.544921875 311.69140625 563.544921875 c 27
 283.69140625 563.544921875 240.615234375 632.28515625 240.615234375 582.639648438 c 27
EndSplineSet
EndChar

StartChar: "+MUcA"
Encoding: 278 12615 22
Width: -27
VWidth: 40
Flags: HW
LayerCount: 2
Fore
SplineSet
408.369140625 435.64453125 m 0
 431.784179688 451.268554688 457.629882812 465.84765625 488.126953125 474.607421875 c 0
 503.375 478.987304688 519.693359375 481.854492188 536.2890625 482.471679688 c 0
 552.884765625 483.088867188 569.762695312 481.416992188 585.033203125 477.071289062 c 0
 602.673828125 472.05078125 617.845703125 463.5390625 629.170898438 453.272460938 c 0
 640.49609375 443.006835938 648.056640625 431.029296875 652.284179688 418.627929688 c 0
 660.73828125 393.82421875 655.991210938 367.856445312 647.6015625 343.043945312 c 0
 635.602539062 307.556640625 615.370117188 272.25 578.159179688 245.500976562 c 0
 559.553710938 232.126953125 536.834960938 221.111328125 511.301757812 214.415039062 c 0
 485.76953125 207.71875 457.383789062 205.45703125 430.452148438 209.016601562 c 0
 391.99609375 214.099609375 358.061523438 231.108398438 337.873046875 253.3671875 c 0
 317.684570312 275.626953125 310.881835938 302.712890625 316.356445312 328.422851562 c 0
 325.178710938 369.845703125 363.866210938 405.950195312 408.369140625 435.64453125 c 0
  Spiro
    408.362 435.647 c
    585.026 477.073 c
    647.594 343.047 c
    430.445 209.02 c
    316.349 328.426 c
    0 0 z
  EndSpiro
419.411132812 615.97265625 m 0
 357.938476562 607.3515625 301.904296875 584.8515625 257.83984375 555.19140625 c 0
 213.775390625 525.53125 181.244140625 488.943359375 158.095703125 450.265625 c 0
 126.674804688 397.767578125 112.041992188 340.154296875 124.34375 284.274414062 c 0
 136.646484375 228.395507812 177.203125 174.481445312 242.747070312 138.34765625 c 0
 299.599609375 107.005859375 373.668945312 90.064453125 447.649414062 90 c 0
 521.629882812 89.935546875 595.08203125 106.482421875 655.015625 135.198242188 c 0
 714.94921875 163.9140625 761.329101562 204.513671875 788.900390625 249.966796875 c 0
 816.471679688 295.420898438 825.416015625 345.560546875 816.904296875 394.217773438 c 0
 805.680664062 458.375 762.788085938 521.0234375 690.303710938 564.245117188 c 0
 654.061523438 585.856445312 610.81640625 602.430664062 564.07421875 611.654296875 c 0
 517.33203125 620.876953125 467.125976562 622.6640625 419.411132812 615.97265625 c 0
  Spiro
    419.403 615.973 c
    158.087 450.267 c
    242.739 138.351 c
    816.898 394.221 c
    0 0 z
  EndSpiro
EndSplineSet
EndChar

StartChar: "+MUgA"
Encoding: 279 12616 23
Width: -35
VWidth: -51
Flags: HW
LayerCount: 2
Fore
SplineSet
181.018554688 586.875 m 31
 413.314453125 586.875 542.844726562 620 775.141601562 620 c 27
 820.1015625 620 839.37109375 514.602539062 794.41015625 514.602539062 c 27
 703.41796875 514.602539062 566.395507812 557.764648438 566.395507812 472.443359375 c 27
 566.395507812 345.965820312 800.833007812 361.022460938 800.833007812 234.544921875 c 27
 800.833007812 186.36328125 752.661132812 153.23828125 701.27734375 153.23828125 c 27
 573.888671875 153.23828125 591.016601562 364.034179688 463.627929688 364.034179688 c 27
 322.323242188 364.034179688 392.975585938 90 251.670898438 90 c 27
 178.876953125 90 129.634765625 154.2421875 129.634765625 222.5 c 27
 129.634765625 322.87890625 331.958007812 296.780273438 331.958007812 397.159179688 c 27
 331.958007812 484.48828125 120 412.215820312 120 499.544921875 c 27
 120 540.700195312 137.127929688 586.875 181.018554688 586.875 c 31
EndSplineSet
EndChar

StartChar: "+MUkA"
Encoding: 280 12617 24
Width: 105
VWidth: -195
Flags: HW
LayerCount: 2
Fore
SplineSet
495.235351562 582.411132812 m 31
 604.221679688 582.411132812 664.932617188 620 773.918945312 620 c 31
 800.982421875 620 798.788085938 499.715820312 771.724609375 499.715820312 c 31
 732.225585938 499.715820312 670.784179688 548.581054688 670.784179688 480.921875 c 31
 670.784179688 321.796875 820 320.543945312 820 161.41796875 c 31
 820 91.2529296875 764.41015625 90 723.448242188 90 c 31
 645.182617188 90 696.384765625 383.19140625 618.119140625 383.19140625 c 31
 548.630859375 383.19140625 602.02734375 116.311523438 532.5390625 116.311523438 c 31
 487.920898438 116.311523438 477.680664062 212.7890625 477.680664062 289.219726562 c 31
 477.680664062 375.673828125 574.232421875 349.361328125 574.232421875 435.815429688 c 31
 574.232421875 509.740234375 471.09765625 429.55078125 471.09765625 503.475585938 c 31
 471.09765625 538.557617188 474.754882812 582.411132812 495.235351562 582.411132812 c 31
209.96875 567.375976562 m 31
 302.131835938 567.375976562 352.6015625 612.482421875 444.764648438 612.482421875 c 31
 474.754882812 612.482421875 463.783203125 480.921875 433.79296875 480.921875 c 31
 396.489257812 480.921875 339.435546875 529.787109375 339.435546875 465.88671875 c 31
 339.435546875 309.266601562 468.903320312 287.966796875 468.903320312 131.34765625 c 31
 468.903320312 72.458984375 415.506835938 150.141601562 381.12890625 150.141601562 c 31
 318.223632812 150.141601562 358.454101562 383.19140625 295.548828125 383.19140625 c 31
 220.940429688 383.19140625 256.05078125 120.071289062 181.442382812 120.071289062 c 31
 139.017578125 120.071289062 120 201.512695312 120 274.184570312 c 31
 120 391.961914062 260.439453125 336.83203125 260.439453125 454.609375 c 31
 260.439453125 533.545898438 188.025390625 469.645507812 141.943359375 469.645507812 c 31
 123.657226562 469.645507812 125.8515625 548.581054688 144.137695312 548.581054688 c 31
 170.470703125 548.581054688 183.63671875 567.375976562 209.96875 567.375976562 c 31
EndSplineSet
EndChar

StartChar: "+MUoA"
Encoding: 281 12618 25
Width: 113
VWidth: -29
Flags: HW
LayerCount: 2
Fore
SplineSet
465.755859375 497.892578125 m 27
 506.666015625 497.892578125 429.494140625 550.71875 429.494140625 588.823242188 c 27
 429.494140625 613.9375 489 620 515.963867188 620 c 3
 649.110351562 620 549.177734375 497.026367188 604.291992188 497.026367188 c 15
 687.041992188 497.026367188 712.146484375 492.696289062 794.896484375 492.696289062 c 3
 822.7890625 492.696289062 822.7890625 425.147460938 794.896484375 425.147460938 c 27
 721.444335938 425.147460938 608.01171875 467.58203125 608.01171875 399.166992188 c 27
 608.01171875 270.130859375 820 263.203125 820 134.166992188 c 27
 820 76.1435546875 728.881835938 92.59765625 666.586914062 92.59765625 c 27
 553.154296875 92.59765625 621.028320312 318.627929688 507.595703125 318.627929688 c 27
 373.708007812 318.627929688 401.600585938 90 267.712890625 90 c 27
 211.926757812 90 186.823242188 147.157226562 186.823242188 199.118164062 c 27
 186.823242188 325.555664062 451.80859375 283.12109375 451.80859375 409.55859375 c 19
 451.80859375 424.423828125 261.220703125 443.333007812 134.755859375 443.333007812 c 11
 95.705078125 443.333007812 142.193359375 526.470703125 181.244140625 526.470703125 c 27
 292.817382812 526.470703125 354.182617188 497.892578125 465.755859375 497.892578125 c 27
EndSplineSet
EndChar

StartChar: "+MUsA"
Encoding: 282 12619 26
Width: -28
VWidth: -20
Flags: HW
LayerCount: 2
Fore
SplineSet
665.68359375 610.53515625 m 31
 478.747070312 610.53515625 374.614257812 595.203125 187.677734375 595.203125 c 27
 117.419921875 595.203125 91.0732421875 451.077148438 161.331054688 451.077148438 c 27
 335.721679688 451.077148438 427.307617188 506.274414062 601.698242188 506.274414062 c 27
 646.864257812 506.274414062 676.974609375 414.278320312 631.80859375 414.278320312 c 27
 493.801757812 414.278320312 423.543945312 356.014648438 285.537109375 356.014648438 c 27
 242.880859375 356.014648438 224.061523438 267.0859375 266.717773438 267.0859375 c 27
 422.2890625 267.0859375 506.34765625 300.817382812 661.918945312 300.817382812 c 27
 752.250976562 300.817382812 575.3515625 199.622070312 575.3515625 126.026367188 c 27
 575.3515625 68.7841796875 756.014648438 84.1171875 756.014648438 141.358398438 c 27
 756.014648438 318.194335938 820 415.30078125 820 592.13671875 c 27
 820 641.201171875 725.904296875 610.53515625 665.68359375 610.53515625 c 31
EndSplineSet
EndChar

StartChar: "+MUwA"
Encoding: 283 12620 27
Width: -145
VWidth: 9
Flags: HW
LayerCount: 2
Fore
SplineSet
153.360351562 542.560546875 m 31
 153.360351562 694.844726562 498.080078125 575.555664062 720.48046875 575.555664062 c 27
 758.782226562 575.555664062 747.663085938 509.565429688 709.360351562 509.565429688 c 27
 543.795898438 509.565429688 456.072265625 456.266601562 290.506835938 456.266601562 c 27
 246.02734375 456.266601562 257.147460938 377.5859375 301.626953125 377.5859375 c 27
 496.844726562 377.5859375 599.395507812 435.961914062 794.614257812 435.961914062 c 27
 858.86328125 435.961914062 788.435546875 334.438476562 724.1875 334.438476562 c 27
 567.271484375 334.438476562 480.782226562 303.982421875 323.8671875 303.982421875 c 27
 280.623046875 303.982421875 276.916015625 227.83984375 320.161132812 227.83984375 c 27
 459.778320312 227.83984375 536.381835938 250.682617188 676 250.682617188 c 27
 724.1875 250.682617188 720.48046875 166.926757812 672.293945312 166.926757812 c 27
 457.307617188 166.926757812 120 4.490234375 120 151.698242188 c 27
 120 303.982421875 153.360351562 390.276367188 153.360351562 542.560546875 c 31
EndSplineSet
EndChar

StartChar: "+MU0A"
Encoding: 284 12621 28
Width: -67
VWidth: 60
Flags: HW
LayerCount: 2
Fore
SplineSet
422.283203125 462.864257812 m 31
 422.283203125 385.627929688 413.961914062 343.014648438 413.961914062 265.778320312 c 27
 413.961914062 235.594726562 491.62890625 254.237304688 491.62890625 284.421875 c 27
 491.62890625 367.872070312 497.176757812 414.036132812 497.176757812 497.487304688 c 27
 497.176757812 528.55859375 422.283203125 493.935546875 422.283203125 462.864257812 c 31
142.126953125 577.38671875 m 27
 380.67578125 577.38671875 513.819335938 620 752.368164062 620 c 27
 786.579101562 620 786.579101562 534.7734375 752.368164062 534.7734375 c 27
 683.947265625 534.7734375 583.165039062 552.529296875 583.165039062 486.833984375 c 27
 583.165039062 388.291015625 555.426757812 335.024414062 555.426757812 236.482421875 c 27
 555.426757812 147.705078125 698.741210938 257.788085938 791.202148438 257.788085938 c 27
 839.28125 257.788085938 822.638671875 140.602539062 774.55859375 140.602539062 c 27
 543.407226562 140.602539062 414.88671875 90 183.734375 90 c 27
 134.73046875 90 164.317382812 162.796875 164.317382812 209.848632812 c 27
 164.317382812 280.87109375 347.389648438 184.103515625 347.389648438 255.125 c 27
 347.389648438 339.463867188 347.389648438 386.515625 347.389648438 470.853515625 c 27
 347.389648438 543.651367188 229.040039062 489.497070312 153.22265625 489.497070312 c 27
 117.163085938 489.497070312 106.067382812 577.38671875 142.126953125 577.38671875 c 27
EndSplineSet
EndChar

StartChar: "+MU4A"
Encoding: 285 12622 29
Width: 0
VWidth: 28
Flags: HW
LayerCount: 2
Fore
SplineSet
419.247070312 320.450195312 m 0
 363.780273438 319.630859375 353.025390625 287.477539062 350 243.231445312 c 24
 346.974609375 193.249023438 351.688476562 183.647460938 410.170898438 168.044921875 c 0
 477.739257812 150.018554688 503.524414062 186.2109375 560 220.625 c 24
 592.272460938 240.291015625 558.9921875 277.982421875 529.745117188 301.743164062 c 24
 485.372070312 337.796875 481.771484375 321.374023438 419.247070312 320.450195312 c 0
476.731445312 386.8203125 m 24
 573.546875 356.502929688 610.344726562 381.322265625 654.71875 304.30078125 c 24
 693.041992188 237.930664062 655.727539062 166.643554688 582.107421875 124.85546875 c 24
 502.436523438 80.609375 485.750976562 84.228515625 392.017578125 104.1328125 c 0
 303.270507812 122.978515625 280.390625 143.526367188 234 207.438476562 c 24
 202.736328125 250.865234375 241.059570312 291.015625 279.381835938 330.345703125 c 24
 318.712890625 370.495117188 313.34375 373.749023438 373.865234375 389.278320312 c 0
 412.1875 399.111328125 439.416992188 398.291992188 476.731445312 386.8203125 c 24
401.09375 492.520507812 m 3
 439.416992188 492.520507812 355.676757812 620 394 620 c 31
 459.551757812 620 444.458984375 578.555664062 510.01171875 578.555664062 c 3
 550.3515625 578.555664062 466.646484375 494.978515625 506.986328125 494.978515625 c 27
 612.877929688 494.978515625 673.387695312 494.978515625 779.279296875 494.978515625 c 27
 816.59375 494.978515625 837.772460938 418.775390625 800.458007812 418.775390625 c 27
 693.557617188 418.775390625 632.0390625 413.860351562 525.138671875 413.860351562 c 27
 379.916015625 413.860351562 298.227539062 396.65234375 153.004882812 396.65234375 c 27
 123.7578125 396.65234375 105.60546875 455.6484375 134.8515625 455.6484375 c 27
 239.735351562 455.6484375 296.2109375 492.520507812 401.09375 492.520507812 c 3
EndSplineSet
EndChar

StartChar: "+MU8A"
Encoding: 286 12623 30
Width: -224
VWidth: 0
Flags: HW
LayerCount: 2
Fore
SplineSet
320 788.747070312 m 31
 320 457.024414062 331.393554688 270.360351562 331.393554688 -61.361328125 c 27
 331.393554688 -115.336914062 479.518554688 -71.482421875 479.518554688 -17.5068359375 c 27
 479.518554688 106.186523438 479.518554688 175.904296875 479.518554688 299.59765625 c 27
 479.518554688 373.813476562 597.259765625 367.06640625 680.817382812 367.06640625 c 27
 726.393554688 367.06640625 726.393554688 471.643554688 680.817382812 471.643554688 c 27
 602.323242188 471.643554688 479.518554688 412.045898438 479.518554688 481.763671875 c 27
 479.518554688 600.958984375 445.3359375 666.178710938 445.3359375 785.374023438 c 27
 445.3359375 829.228515625 320 832.602539062 320 788.747070312 c 31
EndSplineSet
EndChar

StartChar: "+MVAA"
Encoding: 287 12624 31
Width: -17
VWidth: -4
Flags: HW
LayerCount: 2
Fore
SplineSet
374.956054688 677.451171875 m 31
 374.956054688 395.708984375 320 239.186523438 320 -42.5556640625 c 27
 320 -94.7294921875 464.260742188 -72.81640625 464.260742188 -20.642578125 c 27
 464.260742188 96.228515625 460.825195312 163.01171875 460.825195312 279.881835938 c 27
 460.825195312 316.404296875 563.869140625 316.404296875 563.869140625 279.881835938 c 27
 563.869140625 146.315429688 557 72.228515625 557 -61.337890625 c 27
 557 -122.904296875 715 -57.1640625 715 4.4013671875 c 27
 715 283.012695312 708.130859375 439.536132812 708.130859375 718.147460938 c 27
 708.130859375 761.973632812 584.477539062 761.973632812 584.477539062 718.147460938 c 27
 584.477539062 637.798828125 557 595.015625 557 514.666992188 c 27
 557 482.319335938 467.6953125 463.536132812 467.6953125 495.883789062 c 27
 467.6953125 615.885742188 467.6953125 682.668945312 467.6953125 802.669921875 c 27
 467.6953125 837.104492188 374.956054688 815.19140625 374.956054688 780.755859375 c 27
 374.956054688 740.060546875 374.956054688 718.147460938 374.956054688 677.451171875 c 31
EndSplineSet
EndChar

StartChar: "+MVEA"
Encoding: 288 12625 32
Width: 120
VWidth: 36
Flags: HW
LayerCount: 2
Fore
SplineSet
406.157226562 779.500976562 m 31
 406.157226562 452.62109375 320 270.787109375 320 -56.091796875 c 27
 320 -118.104492188 492.313476562 -73.9599609375 492.313476562 -11.947265625 c 27
 492.313476562 90.005859375 485.133789062 147.813476562 485.133789062 249.766601562 c 27
 485.133789062 309.676757812 657.4453125 208.774414062 657.4453125 268.685546875 c 27
 657.4453125 312.830078125 653.85546875 372.740234375 603.59765625 372.740234375 c 27
 548.553710938 372.740234375 463.594726562 337.00390625 463.594726562 385.353515625 c 27
 463.594726562 421.088867188 462.3984375 470.489257812 503.08203125 470.489257812 c 27
 565.306640625 470.489257812 598.811523438 486.254882812 661.03515625 486.254882812 c 27
 719.668945312 486.254882812 737.619140625 618.688476562 678.984375 618.688476562 c 27
 615.563476562 618.688476562 517.442382812 537.756835938 517.442382812 593.462890625 c 27
 517.442382812 672.29296875 528.2109375 716.4375 528.2109375 795.266601562 c 27
 528.2109375 837.309570312 406.157226562 821.543945312 406.157226562 779.500976562 c 31
EndSplineSet
EndChar

StartChar: "+MVIA"
Encoding: 289 12626 33
Width: 125
VWidth: 47
Flags: HW
LayerCount: 2
Fore
SplineSet
473.232421875 337.095703125 m 31
 445.991210938 337.095703125 439.180664062 400.421875 466.422851562 400.421875 c 27
 509.5546875 400.421875 532.255859375 390.922851562 575.388671875 390.922851562 c 27
 601.494140625 390.922851562 584.46875 330.763671875 558.361328125 330.763671875 c 27
 525.4453125 330.763671875 506.149414062 337.095703125 473.232421875 337.095703125 c 31
394.9140625 789.875976562 m 27
 394.9140625 460.58203125 320 276.936523438 320 -52.357421875 c 27
 320 -108.295898438 473.232421875 -89.2978515625 473.232421875 -33.3603515625 c 27
 473.232421875 65.8505859375 456.20703125 120.732421875 456.20703125 219.943359375 c 27
 456.20703125 260.049804688 565.172851562 272.71484375 565.172851562 232.608398438 c 27
 565.172851562 139.73046875 571.982421875 88.0146484375 571.982421875 -4.86328125 c 27
 571.982421875 -51.302734375 701.37890625 -48.1357421875 701.37890625 -1.697265625 c 27
 701.37890625 307.543945312 715 480.634765625 715 789.875976562 c 27
 715 824.705078125 619.654296875 818.373046875 619.654296875 783.54296875 c 27
 619.654296875 666.390625 568.577148438 603.064453125 568.577148438 485.912109375 c 27
 568.577148438 447.916015625 463.016601562 447.916015625 463.016601562 485.912109375 c 27
 463.016601562 604.120117188 510.689453125 668.500976562 510.689453125 786.709960938 c 27
 510.689453125 828.926757812 394.9140625 832.092773438 394.9140625 789.875976562 c 27
EndSplineSet
EndChar

StartChar: "+MVMA"
Encoding: 290 12627 34
Width: -47
VWidth: 0
Flags: HW
LayerCount: 2
Fore
SplineSet
524.815429688 536.1796875 m 31
 524.815429688 483.005859375 324.876953125 576.060546875 324.876953125 522.885742188 c 27
 324.876953125 463.065429688 320 429.831054688 320 370.010742188 c 27
 320 317.944335938 515.061523438 438.693359375 515.061523438 386.627929688 c 27
 515.061523438 210.48828125 485.802734375 110.787109375 485.802734375 -65.3515625 c 27
 485.802734375 -115.202148438 656.481445312 -65.3515625 656.481445312 -15.5009765625 c 27
 656.481445312 295.7890625 715 470.819335938 715 782.109375 c 27
 715 819.774414062 573.580078125 836.391601562 573.580078125 798.7265625 c 27
 573.580078125 695.701171875 524.815429688 639.204101562 524.815429688 536.1796875 c 31
EndSplineSet
EndChar

StartChar: "+MVQA"
Encoding: 291 12628 35
Width: 156
VWidth: -40
Flags: HW
LayerCount: 2
Fore
SplineSet
631.256835938 789.802734375 m 31
 631.256835938 464.940429688 590.654296875 283.495117188 590.654296875 -41.3671875 c 27
 590.654296875 -84.8271484375 676.934570312 -84.8271484375 676.934570312 -41.3671875 c 27
 676.934570312 282.409179688 715 462.767578125 715 786.543945312 c 27
 715 828.916992188 631.256835938 832.176757812 631.256835938 789.802734375 c 31
471.381835938 499.708007812 m 27
 471.381835938 449.729492188 411.322265625 496.44921875 372.411132812 496.44921875 c 27
 325.041015625 496.44921875 297.125976562 343.252929688 344.49609375 343.252929688 c 27
 402.864257812 343.252929688 489.145507812 463.853515625 489.145507812 388.885742188 c 27
 489.145507812 211.786132812 438.391601562 116.174804688 438.391601562 -60.9248046875 c 27
 438.391601562 -117.421875 544.975585938 -68.5302734375 544.975585938 -12.0322265625 c 27
 544.975585938 287.841796875 593.192382812 454.075195312 593.192382812 753.94921875 c 27
 593.192382812 796.322265625 509.447265625 796.322265625 509.447265625 753.94921875 c 27
 509.447265625 652.904296875 471.381835938 600.752929688 471.381835938 499.708007812 c 27
EndSplineSet
EndChar

StartChar: "+MVUA"
Encoding: 292 12629 36
Width: -155
VWidth: 41
Flags: HW
LayerCount: 2
Fore
SplineSet
584.998046875 572.6484375 m 27
 584.998046875 514.765625 324.999023438 605.325195312 324.999023438 547.442382812 c 27
 324.999023438 493.29296875 354.999023438 464.352539062 354.999023438 410.204101562 c 27
 354.999023438 375.661132812 448.333007812 432.610351562 509.999023438 432.610351562 c 27
 574.999023438 432.610351562 509.999023438 376.594726562 509.999023438 340.184570312 c 27
 509.999023438 301.908203125 334.999023438 364.458007812 334.999023438 326.180664062 c 27
 334.999023438 267.364257812 320 233.755859375 320 174.939453125 c 27
 320 134.793945312 494.998046875 245.892578125 494.998046875 205.748046875 c 27
 494.998046875 108.654296875 494.998046875 53.572265625 494.998046875 -43.521484375 c 3
 494.998046875 -106.071289062 665.323242188 -96.67578125 665.323242188 -34.125 c 31
 665.323242188 289.831054688 715 475.5546875 715 799.51171875 c 3
 715 838.72265625 540 816.315429688 540 777.104492188 c 27
 540 696.81640625 584.998046875 652.938476562 584.998046875 572.6484375 c 27
EndSplineSet
EndChar

StartChar: "+MVYA"
Encoding: 293 12630 37
Width: 197
VWidth: -22
Flags: HW
LayerCount: 2
Fore
SplineSet
617.493164062 788.619140625 m 31
 617.493164062 458.803710938 597.084960938 273.165039062 597.084960938 -56.650390625 c 27
 597.084960938 -105.651367188 696.859375 -88.689453125 696.859375 -39.6884765625 c 27
 696.859375 279.76171875 715 460.688476562 715 780.137695312 c 27
 715 827.25390625 617.493164062 835.735351562 617.493164062 788.619140625 c 31
472.3671875 534.190429688 m 27
 472.3671875 486.130859375 411.140625 534.190429688 372.591796875 534.190429688 c 27
 342.357421875 534.190429688 331.01953125 438.072265625 361.25390625 438.072265625 c 27
 402.071289062 438.072265625 424.747070312 455.034179688 465.563476562 455.034179688 c 27
 497.310546875 455.034179688 488.240234375 353.262695312 456.493164062 353.262695312 c 27
 414.920898438 353.262695312 349.916015625 399.4375 349.916015625 347.609375 c 27
 349.916015625 288.2421875 290.958007812 194.952148438 338.578125 194.952148438 c 27
 399.802734375 194.952148438 488.240234375 333.473632812 488.240234375 257.145507812 c 27
 488.240234375 144.06640625 433.817382812 87.5263671875 433.817382812 -25.552734375 c 27
 433.817382812 -83.03515625 551.732421875 -97.169921875 551.732421875 -39.6884765625 c 27
 551.732421875 278.819335938 592.549804688 455.9765625 592.549804688 774.483398438 c 27
 592.549804688 818.7734375 501.845703125 813.119140625 501.845703125 768.830078125 c 27
 501.845703125 676.481445312 472.3671875 626.538085938 472.3671875 534.190429688 c 27
EndSplineSet
EndChar

StartChar: "+MVcA"
Encoding: 294 12631 38
Width: 0
VWidth: -422
Flags: W
HStem: 136 263.488<82.6084 242.144>
LayerCount: 2
Fore
SplineSet
412.146484375 349.53125 m 3
 478.435546875 349.53125 436.6796875 279.052734375 436.6796875 478.328125 c 3
 436.6796875 710.822265625 504.5 627.4609375 581.834960938 627.4609375 c 7
 651.436523438 627.4609375 521.251953125 325.795898438 590.853515625 325.795898438 c 7
 713.485351562 325.795898438 792.4453125 390.204101562 915.079101562 390.204101562 c 3
 995.728515625 390.204101562 964.041015625 142.778320312 883.390625 142.778320312 c 3
 569.62890625 142.778320312 403.908203125 136 90.146484375 136 c 3
 38.2197265625 136 44.0634765625 399.48828125 95.9873046875 399.48828125 c 3
 242.92578125 399.48828125 265.209960938 349.53125 412.146484375 349.53125 c 3
EndSplineSet
EndChar

StartChar: "+MVgA"
Encoding: 295 12632 39
Width: 1000
Flags: H
LayerCount: 2
Fore
SplineSet
785 344 m 31
 828 344 896 301 896 344 c 27
 896 400 976 485 920 485 c 27
 860 485 767 530 767 470 c 27
 767 420 735 344 785 344 c 31
372 245 m 27
 372 294 372 322 372 371 c 27
 372 413 264 410 264 368 c 27
 264 317 285 290 285 239 c 27
 285 205 372 211 372 245 c 27
EndSplineSet
Refer: 50 12643 N 1.00442 0 0 1.00442 325 -4.00043 2
Refer: 48 12641 N 0.732379 0 0 0.732379 31.0003 54 2
EndChar

StartChar: "+MVsA"
Encoding: 298 12635 42
Width: -13
VWidth: 135
Flags: HW
LayerCount: 2
Fore
SplineSet
350.670898438 331.0390625 m 31
 418.794921875 331.0390625 290.22265625 453.706054688 290.22265625 540.799804688 c 27
 290.22265625 619.305664062 381.375 588.639648438 442.782226562 588.639648438 c 27
 508.986328125 588.639648438 448.5390625 456.159179688 448.5390625 371.51953125 c 27
 448.5390625 290.559570312 609.733398438 286.879882812 609.733398438 367.83984375 c 27
 609.733398438 456.159179688 583.827148438 503.999023438 583.827148438 592.3203125 c 27
 583.827148438 658.559570312 716.236328125 658.559570312 716.236328125 592.3203125 c 27
 716.236328125 497.866210938 633.720703125 349.439453125 707.6015625 349.439453125 c 27
 789.158203125 349.439453125 836.172851562 353.120117188 917.729492188 353.120117188 c 27
 983.934570312 353.120117188 972.420898438 136 906.215820312 136 c 27
 597.259765625 136 423.591796875 187.520507812 114.635742188 187.520507812 c 27
 68.5810546875 187.520507812 28.2822265625 331.0390625 74.337890625 331.0390625 c 27
 181.80078125 331.0390625 243.208007812 331.0390625 350.670898438 331.0390625 c 31
EndSplineSet
EndChar

StartChar: "+MVwA"
Encoding: 299 12636 43
Width: -124
VWidth: 43
Flags: HW
LayerCount: 2
Fore
SplineSet
915.958984375 642 m 3
 611.168945312 642 436.584960938 593.40625 131.793945312 593.40625 c 7
 57.6240234375 593.40625 20.1240234375 401.013671875 94.29296875 401.013671875 c 3
 196.276367188 401.013671875 246.108398438 474.842773438 348.092773438 474.842773438 c 19
 459.354492188 474.842773438 405.506835938 136.092773438 417.625976562 136.092773438 c 11
 481.365234375 136.092773438 570.6015625 130.302734375 570.6015625 209.922851562 c 27
 570.6015625 325.734375 450.075195312 505.244140625 542.787109375 505.244140625 c 3
 708.509765625 505.244140625 758.42578125 509.006835938 924.1484375 509.006835938 c 3
 979.776367188 509.006835938 971.586914062 642 915.958984375 642 c 3
EndSplineSet
EndChar

StartChar: "+MWAA"
Encoding: 303 12640 47
Width: -28
VWidth: -54
Flags: HW
LayerCount: 2
Fore
SplineSet
922.068359375 637.883789062 m 7
 606.9921875 637.883789062 438.577148438 642 123.501953125 642 c 7
 55.3525390625 642 23.8515625 499.797851562 92.0029296875 499.797851562 c 7
 172.728515625 499.797851562 307.087890625 529.540039062 307.087890625 506.826171875 c 7
 307.087890625 311.978515625 299.59765625 427.842773438 299.59765625 232.997070312 c 7
 299.59765625 114.846679688 408.534179688 150.25 408.534179688 268.400390625 c 7
 408.534179688 457.026367188 405.934570312 282.349609375 405.934570312 470.974609375 c 7
 405.934570312 566.326171875 535.189453125 507.775390625 580.623046875 507.775390625 c 7
 720.057617188 507.775390625 566.463867188 162.180664062 619.216796875 162.180664062 c 15
 660.701171875 162.180664062 713.10546875 92.82421875 713.10546875 179.884765625 c 7
 713.10546875 322.908203125 714.032226562 330.51953125 714.032226562 473.545898438 c 7
 714.032226562 633.151367188 838.061523438 396.856445312 914.11328125 396.856445312 c 31
 972.387695312 396.856445312 980.342773438 637.883789062 922.068359375 637.883789062 c 7
EndSplineSet
EndChar

StartChar: "+MWEA"
Encoding: 304 12641 48
Width: -17
VWidth: -59
Flags: HW
LayerCount: 2
Fore
SplineSet
749.322265625 260.14453125 m 3
 492.638671875 260.14453125 355.98046875 250.14453125 99.2958984375 250.14453125 c 3
 52.7119140625 250.14453125 34.5791015625 136 81.1630859375 136 c 7
 417.705078125 136 605.94140625 175.928710938 942.483398438 175.928710938 c 7
 981.461914062 175.928710938 956.307617188 268.145507812 917.329101562 268.145507812 c 3
 853.633789062 268.145507812 813.018554688 260.14453125 749.322265625 260.14453125 c 3
EndSplineSet
EndChar

StartChar: "+MWMA"
Encoding: 306 12643 50
Width: -139
VWidth: 4
Flags: HW
LayerCount: 2
Fore
SplineSet
339.061523438 740.288085938 m 31
 339.061523438 440.595703125 320 271.158203125 320 -28.53515625 c 27
 320 -91.0146484375 478.84765625 -110.076171875 478.84765625 -47.5966796875 c 27
 478.84765625 284.924804688 453.431640625 471.305664062 453.431640625 803.827148438 c 27
 453.431640625 845.126953125 389.892578125 794.295898438 348.591796875 794.295898438 c 27
 327.412109375 794.295898438 339.061523438 761.467773438 339.061523438 740.288085938 c 31
EndSplineSet
EndChar

